# Blender 3.3.1
# www.blender.org
mtllib SophyRockV2.mtl
o Rock_V2
v -0.666187 0.781735 -8.959366
v 1.071472 1.459312 -8.257559
v 1.122417 1.048996 -7.967996
v 1.059199 1.522286 -8.272510
v 0.321167 1.251004 -9.314679
v -0.267292 1.105863 -9.263765
v -0.156936 1.534191 -9.275933
v 0.321386 1.251803 -9.314703
v -0.705392 1.330651 -6.015222
v -0.784888 1.406139 -6.115137
v -1.076121 1.382851 -6.575752
v -0.326466 1.897939 -9.039876
v -0.928109 1.793383 -8.498999
v -0.935740 1.840967 -8.377223
v -0.383934 2.380066 -7.831982
v 0.083274 2.441371 -7.255954
v 0.898650 1.982196 -7.912232
v 0.102113 2.466931 -7.390489
v 0.078109 2.495498 -7.539573
v 0.497044 0.556221 -8.789396
v 1.077602 1.391949 -8.261406
v 0.857805 0.606489 -8.255305
v 1.101071 1.048996 -8.074612
v 0.492351 0.559785 -8.798197
v 0.361459 1.224994 -9.292125
v 1.105198 1.245823 -8.154688
v 1.093325 1.334845 -8.212088
v 1.032329 1.469557 -8.365284
v 0.369031 1.253848 -9.293122
v 0.448528 1.323585 -9.201192
v -0.811919 1.490497 -6.219552
v -1.091129 1.427982 -6.632509
v -0.997357 1.957741 -7.701806
v -0.402031 2.421188 -7.605213
v -0.248410 2.475440 -7.425149
v -0.215622 2.452132 -7.303883
v 0.864441 0.606489 -8.236498
v 1.122334 1.028905 -7.936755
v 0.120814 0.532330 -6.126466
v 0.862769 1.250456 -6.556848
v 1.045384 0.879804 -8.086156
v 0.883270 0.632402 -8.227428
v -0.232440 0.091383 -7.274776
v 0.486678 0.533486 -8.765892
v 0.025089 0.124103 -7.005806
v -0.047091 0.110211 -7.064419
v -0.190399 0.090117 -7.230646
v 0.461715 0.527389 -8.777553
v 0.787549 0.564934 -8.345366
v 0.546456 0.543534 -8.707648
v 0.060850 0.131806 -6.982232
v 0.822226 0.558569 -8.230370
v 0.044915 0.386835 -8.714144
v -0.215331 0.088497 -7.272061
v -0.585139 0.192425 -7.510799
v 0.093408 0.516922 -6.141535
v 0.104690 0.497303 -6.167612
v 0.044241 0.148692 -6.886892
v -0.237194 0.093422 -7.267572
v -0.257800 0.096423 -7.282103
v 0.039600 0.146667 -6.895278
v -0.047091 0.115078 -7.040113
v -0.191624 0.090785 -7.227868
v -0.178056 0.091405 -7.213386
v -0.095131 0.102196 -7.111621
v -0.749129 0.914929 -6.214428
v -0.523382 0.162669 -7.417181
v -0.653743 0.232498 -7.412843
v -1.103844 1.326648 -6.636629
v -1.129967 1.443519 -6.747491
v -1.141420 1.516806 -6.944527
v -0.830053 0.375198 -7.315619
v -0.976736 0.831903 -6.594860
v -0.663659 0.773223 -8.953633
v -0.435791 0.921003 -9.145382
v -0.662645 0.782132 -8.962596
v 0.027152 0.390105 -8.718150
v -0.548165 0.453338 -8.662845
v -0.600161 0.515852 -8.713665
v -0.680898 0.785338 -8.944829
v -0.986632 1.304191 -8.548292
v -0.848927 0.522515 -7.818988
v -1.018739 1.250780 -8.327883
v -0.641656 0.560373 -8.733338
v -0.642167 0.586490 -8.774509
v -0.658283 0.679839 -8.862958
v 0.555807 2.042663 -6.722059
v 0.562253 1.578939 -6.164728
v 0.691450 2.042324 -6.997716
v 0.774074 1.996978 -7.110099
v 0.811645 1.417985 -6.474320
v 0.337261 0.834326 -6.011497
v 0.204358 0.664098 -6.042556
v 0.330702 1.360298 -5.929433
v -0.206194 1.275850 -5.890970
v 0.300748 0.965261 -5.950956
v 0.179783 0.897790 -5.945229
v 0.103253 2.061262 -8.723083
v -0.174980 2.071319 -8.830555
v -0.141614 2.326337 -8.275005
v 0.437124 2.301211 -8.060370
v 0.191041 2.447943 -7.863496
vn 0.7889 0.4768 0.3876
vn -0.5131 -0.5790 -0.6336
vn 0.9756 -0.0999 -0.1953
vn 0.9367 -0.2955 -0.1876
vn 0.9756 0.0999 -0.1953
vn 0.9379 0.1042 -0.3309
vn -0.0846 -0.0065 -0.9964
vn 0.4135 -0.1396 -0.8997
vn -0.8002 0.3481 0.4884
vn 0.1939 0.8871 -0.4189
vn -0.5838 0.7894 -0.1897
vn 0.0053 0.9823 0.1874
vn 0.4648 0.8557 0.2276
vn 0.5922 0.6148 -0.5209
vn 0.4254 -0.7370 -0.5253
vn 0.5501 -0.7082 -0.4424
vn 0.2391 -0.3518 0.9050
vn 0.8197 -0.4944 -0.2892
vn 0.7103 -0.6578 -0.2506
vn -0.4165 -0.8039 0.4246
vn 0.8160 -0.2324 -0.5293
vn 0.0744 -0.5850 -0.8076
vn -0.1401 -0.9749 0.1730
vn 0.0931 -0.7759 0.6240
vn -0.4712 -0.8815 0.0306
vn -0.9853 0.1292 -0.1122
vn 0.2969 -0.9443 -0.1418
vn -0.0293 -0.9801 0.1962
vn 0.0293 -0.9801 0.1962
vn -0.2276 -0.9659 0.1233
vn -0.1877 -0.9706 0.1509
vn 0.0866 -0.9783 0.1883
vn -0.8293 -0.1681 0.5329
vn -0.6152 0.7265 0.3060
vn -0.9379 0.1042 0.3309
vn -0.1277 -0.9664 -0.2230
vn -0.6753 0.1535 -0.7214
vn -0.6523 -0.5470 -0.5246
vn -0.1441 -0.6936 -0.7058
vn -0.5501 -0.7082 -0.4424
vn -0.9671 -0.2516 -0.0374
vn -0.6775 -0.7124 -0.1831
vn -0.9047 -0.3648 -0.2202
vn 0.9640 0.2225 0.1456
vn 0.5518 0.8310 0.0704
vn 0.0808 -0.0603 0.9949
vn 0.7434 -0.6242 0.2401
vn -0.2625 -0.3944 0.8807
vn 0.7514 -0.0926 0.6534
vn -0.0748 0.7661 0.6383
vn -0.1253 0.9744 -0.1867
vn -0.4557 0.8190 -0.3486
vn 0.3036 0.6142 -0.7284
vt 0.134289 0.649371
vt 0.216016 0.476562
vt 0.191351 0.489153
vt 0.220629 0.476378
vt 0.099840 0.760839
vt 0.126388 0.688987
vt 0.159487 0.717931
vt 0.099971 0.760957
vt 0.192654 0.588297
vt 0.193633 0.592022
vt 0.188159 0.602583
vt 0.197813 0.700950
vt 0.190905 0.653540
vt 0.195252 0.650509
vt 0.252126 0.642950
vt 0.275859 0.596176
vt 0.252685 0.496821
vt 0.286205 0.601440
vt 0.285234 0.593926
vt 0.301751 0.591485
vt 0.293556 0.613479
vt 0.122596 0.463331
vt 0.211384 0.475960
vt 0.159392 0.487171
vt 0.190357 0.485432
vt 0.122074 0.462455
vt 0.001129 0.670746
vt 0.169960 0.375939
vt 0.092398 0.764849
vt 0.200864 0.479945
vt 0.207193 0.477987
vt 0.218127 0.470041
vt 0.173480 0.374209
vt 0.096419 0.768798
vt 0.188652 0.379371
vt 0.102180 0.789603
vt 0.195805 0.594665
vt 0.188974 0.604162
vt 0.203693 0.631224
vt 0.251332 0.630967
vt 0.262035 0.621989
vt 0.262444 0.616022
vt 0.159925 0.487852
vt 0.190548 0.490484
vt 0.176170 0.556085
vt 0.204867 0.530882
vt 0.179905 0.486242
vt 0.161859 0.487479
vt 0.132863 0.563219
vt 0.120978 0.466545
vt 0.146091 0.546662
vt 0.142281 0.549994
vt 0.134919 0.559731
vt 0.004772 0.664359
vt 0.117731 0.466407
vt 0.153056 0.484453
vt 0.128559 0.469067
vt 0.148271 0.544861
vt 0.156482 0.489553
vt 0.064040 0.493417
vt 0.063189 0.629854
vt 0.132776 0.561773
vt 0.135669 0.589691
vt 0.175221 0.556851
vt 0.174474 0.555989
vt 0.151543 0.547793
vt 0.133331 0.563576
vt 0.132809 0.565213
vt 0.151021 0.547954
vt 0.143269 0.550137
vt 0.135075 0.559827
vt 0.135736 0.558791
vt 0.140048 0.553273
vt 0.179483 0.586770
vt 0.136879 0.584155
vt 0.141619 0.590898
vt 0.186026 0.603337
vt 0.188340 0.606449
vt 0.189210 0.611077
vt 0.150484 0.597268
vt 0.173544 0.596477
vt 0.133894 0.648944
vt 0.127339 0.665625
vt 0.134121 0.649546
vt 0.065347 0.630213
vt 0.120865 0.633056
vt 0.124945 0.635909
vt 0.135209 0.648865
vt 0.167752 0.647411
vt 0.145168 0.611524
vt 0.168166 0.639764
vt 0.127971 0.637310
vt 0.128392 0.639078
vt 0.131037 0.643835
vt 0.241476 0.548494
vt 0.213340 0.549402
vt 0.248750 0.536760
vt 0.247219 0.529250
vt 0.210757 0.536142
vt 0.187462 0.551547
vt 0.181445 0.554812
vt 0.203632 0.555759
vt 0.198153 0.573073
vt 0.191678 0.554011
vt 0.188593 0.557480
vt 0.342278 0.408347
vt 0.248244 0.748070
vt 0.224175 0.707352
vt 0.263279 0.677419
vt 0.342278 0.687467
vt 0.319473 0.508691
vt 0.322737 0.558497
vt 0.309680 0.647080
s 0
f 88/96/1 91/99/1 90/98/1 89/97/1 87/95/1
f 74/82/2 1/1/2 76/84/2
f 23/25/3 26/30/3 3/3/3
f 41/47/4 23/25/4 3/3/4 38/44/4
f 21/23/5 2/2/5 27/31/5
f 21/23/6 28/32/6 4/4/6 2/2/6
f 5/5/7 6/6/7 7/7/7 8/8/7
f 25/29/8 5/5/8 8/8/8 29/34/8
f 31/37/9 32/38/9 11/11/9 10/10/9
f 101/110/10 98/107/10 99/108/10 100/109/10 102/113/10
f 33/39/11 34/40/11 15/15/11 14/14/11
f 35/41/12 36/42/12 16/16/12 18/18/12 19/21/12
f 87/95/13 89/97/13 18/19/13 16/16/13
f 101/111/14 17/17/14 4/4/14 28/32/14 30/35/14 98/106/14
f 48/55/15 24/26/15 20/22/15 44/50/15
f 44/50/16 20/22/16 50/57/16
f 96/104/17 97/105/17 93/101/17 92/100/17
f 22/24/18 42/48/18 37/43/18
f 52/59/19 49/56/19 22/24/19 37/43/19
f 73/81/20 72/80/20 68/76/20 67/75/20 60/68/20 59/67/20 63/71/20 64/72/20 65/73/20 62/70/20 61/69/20 58/66/20 57/65/20 56/64/20 66/74/20
f 27/31/21 26/30/21 23/25/21 41/47/21 42/48/21 22/24/21 49/56/21 50/57/21 20/22/21 24/26/21 25/28/21 29/33/21 30/35/21 28/32/21 21/23/21
f 75/83/22 6/6/22 5/5/22 25/29/22 24/27/22 48/54/22 53/61/22 77/85/22
f 64/72/23 63/71/23 47/53/23
f 57/65/24 39/45/24 56/64/24
f 67/75/25 68/76/25 55/63/25
f 83/91/26 71/79/26 33/39/26 14/14/26 13/13/26 81/89/26
f 49/56/27 52/59/27 51/58/27 45/51/27 46/52/27 65/73/27 64/72/27 47/53/27 54/62/27 53/60/27 48/55/27 44/50/27 50/57/27
f 46/52/28 62/70/28 65/73/28
f 45/51/29 61/69/29 62/70/29 46/52/29
f 43/49/30 59/67/30 60/68/30
f 47/53/31 63/71/31 59/67/31 43/49/31 54/62/31
f 45/51/32 51/58/32 58/66/32 61/69/32
f 69/77/33 73/81/33 66/74/33 9/9/33 10/10/33 11/11/33
f 33/39/34 71/79/34 70/78/34 32/38/34 31/37/34 36/42/34 35/41/34 34/40/34
f 11/11/35 32/38/35 70/78/35 69/77/35
f 55/63/36 78/86/36 77/85/36 53/61/36 54/62/36 43/49/36 60/68/36 67/75/36
f 80/88/37 81/89/37 13/13/37 12/12/37 7/7/37 6/6/37 75/83/37 76/84/37 1/1/37
f 86/94/38 80/88/38 1/1/38 74/82/38
f 79/87/39 85/93/39 86/94/39 74/82/39 76/84/39 75/83/39 77/85/39 78/86/39
f 79/87/40 84/92/40 85/93/40
f 69/77/41 70/78/41 71/79/41 83/91/41 82/90/41 72/80/41 73/81/41
f 72/80/42 82/90/42 84/92/42 79/87/42 78/86/42 55/63/42 68/76/42
f 84/92/43 82/90/43 83/91/43 81/89/43 80/88/43 86/94/43 85/93/43
f 4/4/44 17/17/44 90/98/44 91/99/44 40/46/44 38/44/44 3/3/44 26/30/44 27/31/44 2/2/44
f 101/111/45 102/112/45 19/20/45 18/19/45 89/97/45 90/98/45 17/17/45
f 94/102/46 95/103/46 97/105/46 96/104/46
f 51/58/47 52/59/47 37/43/47 42/48/47 41/47/47 38/44/47 40/46/47 92/100/47 93/101/47 39/45/47 57/65/47 58/66/47
f 66/74/48 56/64/48 39/45/48 93/101/48 97/105/48 95/103/48 9/9/48
f 92/100/49 40/46/49 91/99/49 88/96/49 94/102/49 96/104/49
f 16/16/50 36/42/50 31/37/50 10/10/50 9/9/50 95/103/50 94/102/50 88/96/50 87/95/50
f 35/41/51 19/21/51 102/113/51 100/109/51 15/15/51 34/40/51
f 14/14/52 15/15/52 100/109/52 99/108/52 12/12/52 13/13/52
f 30/36/53 29/34/53 8/8/53 7/7/53 12/12/53 99/108/53 98/107/53
