# Blender 3.3.1
# www.blender.org
mtllib SophyCrystal2.mtl
o Crystal_V2
v 0.127429 0.172167 8.062162
v 0.206273 0.172167 8.104305
v 0.400190 1.673041 8.036210
v 0.275380 0.172167 8.161020
v -0.345017 2.272728 8.929368
v -0.232148 2.438289 8.036727
v -0.047091 0.142232 8.041589
v 0.040851 0.161022 8.041374
v 0.136443 0.246195 8.040401
v 0.058481 0.172167 8.041246
v 0.250308 0.421282 8.038403
v 0.251752 0.424260 8.038369
v 0.385450 1.673041 8.024114
v 0.341246 0.711870 8.035086
v -0.240660 2.368375 8.016176
v -0.182184 2.420198 8.015584
v -0.047091 0.062028 8.079477
v 0.031737 0.062126 8.087194
v 0.107589 0.062417 8.110061
v 0.177594 0.062891 8.147226
v 0.239092 0.063529 8.197309
v 0.289730 0.064307 8.258435
v -0.423466 0.069160 8.639391
v -0.446196 0.068186 8.562879
v -0.453538 0.067174 8.483492
v -0.445260 0.066165 8.404291
v -0.238690 2.384554 8.946053
v -0.354219 2.192795 8.943141
v -0.316980 2.272728 8.944354
v 0.093176 2.929696 8.611021
v -0.174149 2.441128 8.946912
v 0.465675 2.272728 8.631559
v 0.097828 2.927910 8.608933
v 0.101494 2.922001 8.616311
v -0.400748 2.679878 8.629981
v -0.461830 2.595060 8.565989
v -0.458685 2.547128 8.313004
v -0.391075 2.614446 8.253650
v -0.384516 2.621603 8.250961
v 0.324266 0.389460 8.112134
v 0.326405 0.424260 8.099635
v 0.419292 1.673041 8.059486
v 0.311501 0.172167 8.205033
v 0.404923 1.497748 8.031478
v 0.345757 0.711870 8.038788
v 0.349053 0.757636 8.034563
v 0.401520 1.455316 8.026599
v 0.308587 0.112314 8.245835
v 0.321484 0.069349 8.654170
v 0.306725 0.064707 8.289830
v 0.483340 2.238234 8.597832
v -0.488856 2.536727 8.571364
v -0.490462 2.524820 8.585353
v -0.458812 2.546838 8.312952
v -0.455497 2.524820 8.284792
v -0.484527 0.150916 8.570503
v -0.474334 0.111198 8.483492
v -0.464666 0.108049 8.400432
v -0.458861 2.546997 8.313370
v -0.482723 2.560778 8.518280
v -0.396262 2.601239 8.250183
v -0.257847 2.455255 8.056554
v -0.380058 2.608901 8.236115
v -0.262802 2.461485 8.063835
v -0.255340 2.347194 8.016418
v -0.423746 1.862741 8.021948
v 0.456945 2.272728 8.660338
v -0.107476 2.441128 8.946912
v 0.144552 2.849422 8.666209
v 0.446508 2.309023 8.655155
v 0.398804 1.689705 8.037596
v 0.097068 2.461485 8.063835
v 0.067177 2.420198 8.015584
v 0.379446 1.703303 8.023768
v 0.235920 2.653273 8.287973
v 0.473215 2.234635 8.348666
v 0.422414 1.708869 8.069901
v -0.318508 2.422695 8.889695
v -0.233486 2.427296 8.933489
v -0.190394 2.454946 8.937411
v -0.161071 2.929696 8.611021
v -0.190381 2.921104 8.600980
v -0.371044 2.718297 8.647239
v -0.384162 2.272728 8.897243
v -0.430139 2.612537 8.642156
v -0.474467 2.524820 8.638082
v -0.499659 2.423130 8.665956
v -0.376098 2.694148 8.661867
v -0.321841 2.425541 8.885795
v -0.429691 0.083425 8.641970
v -0.406604 0.069567 8.671343
v -0.323610 0.070979 8.782138
v -0.362888 2.167563 8.942758
v -0.485101 0.155093 8.575376
v -0.509730 2.248376 8.755191
v -0.411805 2.235627 8.884455
v 0.326803 0.118988 8.693723
v 0.480583 2.172717 8.653463
v 0.322617 1.659153 8.935038
v 0.469689 2.185684 8.680164
v 0.304186 0.069766 8.686948
v 0.314426 0.124848 8.722723
v -0.280105 0.071437 8.818120
v -0.260813 0.592499 8.918841
v -0.294825 0.100104 8.823474
v 0.257024 0.557981 8.918317
v 0.261763 0.302483 8.869097
v -0.062128 0.071470 8.820707
v -0.071554 0.147459 8.041529
v -0.431848 0.065614 8.360971
v -0.069155 0.062055 8.081637
v -0.459083 0.126489 8.352164
v -0.423414 1.115793 8.030475
v -0.437978 0.473140 8.165465
v -0.251562 0.438105 8.038211
vn 0.2767 -0.3019 -0.9123
vn 0.4266 -0.4255 -0.7981
vn 0.6827 0.2897 -0.6708
vn 0.5741 -0.4255 -0.6996
vn 0.6339 0.0380 -0.7725
vn 0.7725 0.0380 -0.6339
vn 0.9136 -0.0605 0.4021
vn -0.4617 0.2020 0.8637
vn -0.7985 -0.0608 0.5989
vn -0.7981 -0.4254 0.4266
vn -0.9123 0.3019 0.2767
vn -0.2767 0.3019 -0.9123
vn -0.8660 0.4254 -0.2627
vn -0.4494 0.3019 -0.8408
vn -0.5710 -0.3621 -0.7368
vn 0.4494 -0.3019 -0.8408
vn 0.2627 -0.4255 -0.8660
vn 0.0887 -0.4255 -0.9006
vn -0.0887 -0.4255 -0.9006
vn 0.4778 0.7861 0.3921
vn 0.9372 0.2020 0.2843
vn -0.6996 0.4255 -0.5741
vn -0.9006 0.4255 0.0887
vn 0.7981 -0.4255 -0.4266
vn 0.6301 -0.1162 -0.7678
vn 0.6996 -0.4255 -0.5741
vn 0.6213 -0.2020 -0.7571
vn 0.7370 -0.3019 -0.6048
vn 0.6048 -0.3019 -0.7370
vn -0.9006 -0.4255 -0.0887
vn -0.9006 -0.4255 0.0887
vn -0.8660 0.4255 0.2627
vn -0.6982 0.2350 -0.6762
vn -0.7981 0.4255 -0.4266
vn 0.9123 0.3019 0.2767
vn 0.9964 -0.0754 -0.0394
vn 0.8718 0.4880 -0.0425
vn -0.5767 -0.1554 -0.8020
vn -0.0000 0.7598 -0.6501
vn 0.6301 0.1162 -0.7678
vn 0.7678 0.1162 -0.6301
vn -0.7549 0.6426 -0.1311
vn -0.0000 0.5665 0.8240
vn -0.2767 0.3019 0.9123
vn -0.7981 0.4255 0.4266
vn -0.4494 0.3019 0.8408
vn -0.4099 0.5338 0.7396
vn -0.6048 0.3019 0.7370
vn -0.7322 0.3427 0.5885
vn -0.9933 -0.0018 -0.1156
vn -0.6213 0.2020 0.7571
vn -0.8660 -0.4255 0.2627
vn -0.5741 -0.4254 0.6996
vn -0.0116 -0.1894 0.9818
vn 0.4978 0.2613 0.8270
vn 0.7981 -0.4255 0.4266
vn 0.2821 -0.5589 0.7798
vn -0.0000 -0.0152 0.9999
vn -0.8660 -0.4255 -0.2627
vn -0.0000 -0.9999 0.0127
vn -0.0000 -0.0114 -0.9999
vt 0.163950 0.058852
vt 0.147706 0.057898
vt 0.147001 0.136316
vt 0.130563 0.058703
vt 0.299559 0.201080
vt 0.208866 0.158490
vt 0.194055 0.057556
vt 0.179324 0.058863
vt 0.163662 0.065164
vt 0.176352 0.059581
vt 0.148569 0.077855
vt 0.148281 0.078166
vt 0.148909 0.135932
vt 0.139862 0.094525
vt 0.209449 0.155823
vt 0.204420 0.157108
vt 0.194613 0.048905
vt 0.619280 0.134429
vt 0.180076 0.047949
vt 0.615642 0.152687
vt 0.164840 0.046173
vt 0.608530 0.169896
vt 0.147917 0.044428
vt 0.598209 0.185405
vt 0.129506 0.044469
vt 0.585066 0.198624
vt 0.111635 0.046904
vt 0.569591 0.209046
vt 0.336770 0.081175
vt 0.497073 0.033380
vt 0.323322 0.071161
vt 0.515498 0.029843
vt 0.309112 0.069042
vt 0.534236 0.029972
vt 0.294836 0.066096
vt 0.552568 0.033749
vt 0.300985 0.214030
vt 0.302763 0.198757
vt 0.301495 0.204067
vt 0.188494 0.246338
vt 0.257494 0.287852
vt 0.301992 0.222193
vt 0.087088 0.220338
vt 0.187129 0.245928
vt 0.186239 0.247801
vt 0.259389 0.289365
vt 0.261711 0.196902
vt 0.258244 0.186638
vt 0.238117 0.172413
vt 0.229582 0.174495
vt 0.228953 0.174887
vt 0.132448 0.076716
vt 0.133928 0.079144
vt 0.144022 0.137131
vt 0.119505 0.059356
vt 0.145559 0.129425
vt 0.139122 0.094602
vt 0.139293 0.097057
vt 0.145752 0.127483
vt 0.112286 0.053130
vt 0.033307 0.061829
vt 0.476294 0.207271
vt 0.103901 0.047528
vt 0.561853 0.212291
vt 0.088389 0.212391
vt 0.260314 0.183397
vt 0.261875 0.183607
vt 0.238133 0.172347
vt 0.235931 0.170563
vt 0.319866 0.079856
vt 0.308312 0.073795
vt 0.293809 0.070691
vt 0.238375 0.172479
vt 0.254703 0.181782
vt 0.229681 0.173699
vt 0.211190 0.159925
vt 0.227422 0.174031
vt 0.211746 0.160557
vt 0.210712 0.155241
vt 0.223909 0.143160
vt 0.083704 0.225925
vt 0.355722 0.321439
vt 0.305744 0.230081
vt 0.176274 0.259526
vt 0.275073 0.295596
vt 0.087439 0.227586
vt 0.352269 0.322447
vt 0.147159 0.136990
vt 0.178919 0.164382
vt 0.182058 0.159195
vt 0.149767 0.137084
vt 0.158262 0.194633
vt 0.117437 0.177072
vt 0.143163 0.138984
vt 0.292681 0.206283
vt 0.298907 0.215378
vt 0.299913 0.220869
vt 0.241728 0.230091
vt 0.243058 0.224742
vt 0.261947 0.201851
vt 0.296072 0.196752
vt 0.264975 0.193130
vt 0.266611 0.186970
vt 0.271327 0.183594
vt 0.264598 0.201735
vt 0.292145 0.205969
vt 0.335696 0.082539
vt 0.342281 0.085862
vt 0.489208 0.036580
vt 0.365080 0.103571
vt 0.461365 0.053415
vt 0.303323 0.197395
vt 0.320667 0.080485
vt 0.282873 0.181760
vt 0.295363 0.192992
vt 0.026914 0.067645
vt 0.466013 0.208929
vt 0.365862 0.321181
vt 0.077011 0.217892
vt 0.369972 0.253982
vt 0.074518 0.224072
vt 0.362330 0.316748
vt 0.469030 0.202463
vt 0.460257 0.205496
vt 0.374374 0.110647
vt 0.451937 0.062754
vt 0.361423 0.148639
vt 0.370785 0.112117
vt 0.412595 0.207440
vt 0.428769 0.198625
vt 0.414539 0.138096
vt 0.446263 0.113676
vt 0.198012 0.057997
vt 0.286332 0.063693
vt 0.562388 0.037894
vt 0.198742 0.048879
vt 0.619288 0.129219
vt 0.285273 0.070523
vt 0.231764 0.112763
vt 0.252621 0.086363
vt 0.224038 0.074810
s 0
usemtl Material.001
f 10/10/1 9/9/1 1/1/1
f 19/21/2 1/1/2 2/2/2 20/23/2
f 76/93/3 77/94/3 71/88/3 74/91/3 73/90/3 72/89/3 75/92/3
f 20/23/4 2/2/4 4/4/4 21/25/4
f 47/59/5 13/13/5 3/3/5 44/56/5
f 44/56/6 3/3/6 42/54/6
f 107/130/7 102/124/7 97/117/7 98/118/7 100/122/7 99/120/7 106/129/7
f 28/38/8 29/39/8 5/5/8
f 104/127/9 93/112/9 96/115/9 95/114/9 94/113/9 90/107/9 91/108/9 92/110/9 105/128/9
f 91/108/10 90/107/10 23/29/10
f 87/104/11 86/103/11 53/67/11
f 15/15/12 6/6/12 16/16/12
f 59/73/13 37/49/13 54/68/13
f 65/79/14 62/76/14 6/6/14 15/15/14
f 115/141/15 109/133/15 111/136/15 110/134/15 112/138/15 114/140/15
f 1/1/16 9/9/16 11/11/16 2/2/16
f 18/19/17 8/8/17 10/10/17 1/1/17 19/21/17
f 17/17/18 7/7/18 8/8/18 18/19/18
f 111/136/19 109/133/19 7/7/19 17/17/19
f 34/45/20 33/44/20 30/40/20
f 98/119/21 51/65/21 32/43/21 67/81/21 100/121/21
f 61/75/22 38/50/22 39/51/22 63/77/22
f 52/66/23 36/48/23 60/74/23
f 22/27/24 48/60/24 50/63/24
f 14/14/25 46/58/25 45/57/25
f 21/25/26 4/4/26 43/55/26 48/60/26 22/27/26
f 12/12/27 14/14/27 45/57/27 41/53/27
f 4/4/28 40/52/28 43/55/28
f 2/2/29 11/11/29 12/12/29 41/53/29 40/52/29 4/4/29
f 25/33/30 57/71/30 58/72/30 26/35/30
f 24/31/31 56/70/31 57/71/31 25/33/31
f 85/102/32 35/47/32 36/48/32 52/66/32 53/67/32 86/103/32
f 55/69/33 61/75/33 63/77/33 64/78/33 62/76/33 65/79/33 66/80/33
f 54/68/34 37/49/34 38/50/34 61/75/34 55/69/34
f 32/43/35 70/86/35 67/81/35
f 98/119/36 97/116/36 49/61/36 50/63/36 48/60/36 43/55/36 40/52/36 41/53/36 45/57/36 46/58/36 47/59/36 44/56/36 42/54/36 77/94/36 76/93/36 51/65/36
f 69/84/37 70/86/37 32/43/37 51/65/37 76/93/37 75/92/37 33/44/37 34/45/37
f 114/140/38 113/139/38 115/141/38
f 6/6/39 62/76/39 64/78/39 72/89/39 73/90/39 16/16/39
f 13/13/40 74/91/40 71/88/40 3/3/40
f 3/3/41 71/88/41 77/94/41 42/54/41
f 36/48/42 35/47/42 83/100/42 82/99/42 39/51/42 38/50/42 37/49/42 59/73/42 60/74/42
f 64/78/39 63/77/39 39/51/39 82/99/39 81/98/39 30/40/39 33/44/39 75/92/39 72/89/39
f 30/41/43 81/98/43 80/97/43 31/42/43 68/83/43 69/85/43 34/46/43
f 31/42/44 80/97/44 79/96/44 27/37/44
f 85/102/45 88/105/45 83/100/45 35/47/45
f 27/37/46 79/96/46 78/95/46 5/5/46 29/39/46
f 79/96/47 80/97/47 81/98/47 82/99/47 83/100/47 88/105/47 89/106/47 78/95/47
f 5/5/48 78/95/48 89/106/48 84/101/48
f 87/104/49 95/114/49 96/115/49 84/101/49 89/106/49 88/105/49 85/102/49 86/103/49
f 114/140/50 112/138/50 58/72/50 57/71/50 56/70/50 94/113/50 95/114/50 87/104/50 53/67/50 52/66/50 60/74/50 59/73/50 54/68/50 55/69/50 66/80/50 113/139/50
f 28/38/51 5/5/51 84/101/51 96/115/51 93/112/51
f 23/29/52 90/107/52 94/113/52 56/70/52 24/31/52
f 103/125/53 105/128/53 92/110/53
f 106/129/54 104/127/54 105/128/54 103/125/54 108/131/54 107/130/54
f 70/87/55 69/85/55 68/83/55 99/120/55 100/122/55 67/82/55
f 49/62/56 97/117/56 102/124/56 101/123/56
f 107/130/57 108/131/57 101/123/57 102/124/57
f 93/112/58 104/127/58 106/129/58 99/120/58 68/83/58 31/42/58 27/37/58 29/39/58 28/38/58
f 26/35/59 58/72/59 112/138/59 110/134/59
f 103/126/60 92/111/60 91/109/60 23/30/60 24/32/60 25/34/60 26/36/60 110/135/60 111/137/60 17/18/60 18/20/60 19/22/60 20/24/60 21/26/60 22/28/60 50/64/60 49/62/60 101/123/60 108/132/60
f 109/133/61 115/141/61 113/139/61 66/80/61 65/79/61 15/15/61 16/16/61 73/90/61 74/91/61 13/13/61 47/59/61 46/58/61 14/14/61 12/12/61 11/11/61 9/9/61 10/10/61 8/8/61 7/7/61
